<svg width="512" height="512" viewBox="0 0 512 512" fill="none" xmlns="http://www.w3.org/2000/svg">
  <rect width="512" height="512" rx="256" fill="#111827"/>
  <path d="M256 128C179.373 128 128 179.373 128 256C128 332.627 179.373 384 256 384C332.627 384 384 332.627 384 256C384 179.373 332.627 128 256 128ZM256 352C197.019 352 160 314.981 160 256C160 197.019 197.019 160 256 160C314.981 160 352 197.019 352 256C352 314.981 314.981 352 256 352Z" fill="#7C3AED"/>
  <path d="M256 192C214.981 192 192 214.981 192 256C192 297.019 214.981 320 256 320C297.019 320 320 297.019 320 256C320 214.981 297.019 192 256 192ZM256 288C232.981 288 224 279.019 224 256C224 232.981 232.981 224 256 224C279.019 224 288 232.981 288 256C288 279.019 279.019 288 256 288Z" fill="#10B981"/>
</svg>